<?xml version="1.0" standalone="no"?><!DOCTYPE svg PUBLIC "-//W3C//DTD SVG 1.1//EN" "http://www.w3.org/Graphics/SVG/1.1/DTD/svg11.dtd"><svg t="1677941802022" class="icon" viewBox="0 0 1024 1024" version="1.1" xmlns="http://www.w3.org/2000/svg" p-id="4110" xmlns:xlink="http://www.w3.org/1999/xlink" width="32" height="32"><path d="M512 1002c-270.63 0-490-219.37-490-490S241.37 22 512 22c270.62 0 490 219.37 490 490s-219.37 490-490 490z m0-49c243.56 0 441-197.44 441-441S755.56 71 512 71 71 268.44 71 512s197.44 441 441 441z m0 0" fill="#1296db" p-id="4111"></path><path d="M512 22v980c-270.63 0-490-219.37-490-490S241.37 22 512 22z m0 0" fill="#1296db" p-id="4112"></path></svg>